<svg width="128" height="32" viewBox="0 0 128 32" fill="none" xmlns="http://www.w3.org/2000/svg">
<path fill-rule="evenodd" clip-rule="evenodd" d="M105.115 30.6948C107.111 31.4809 109.245 31.8651 111.391 31.8253H111.558C113.7 31.8663 115.829 31.4824 117.819 30.6962C119.81 29.91 121.623 28.7372 123.151 27.2465C124.725 25.8129 125.971 24.0616 126.806 22.1102C127.642 20.1587 128.047 18.0523 127.996 15.9324C128.043 13.818 127.635 11.718 126.8 9.77261C125.964 7.82724 124.72 6.0813 123.151 4.65143C120.001 1.66578 115.813 0 111.458 0C107.103 0 102.916 1.66578 99.765 4.65143C98.2199 6.09637 96.9965 7.84664 96.1737 9.78957C95.3508 11.7325 94.9468 13.825 94.9876 15.9324C94.94 18.0456 95.3408 20.1451 96.1639 22.0944C96.987 24.0437 98.214 25.7991 99.765 27.2465C101.301 28.7367 103.12 29.9088 105.115 30.6948ZM121.189 11.9703C121.712 13.2257 121.97 14.574 121.949 15.9324L121.782 15.8992C121.805 17.2726 121.548 18.6365 121.025 19.9083C120.503 21.18 119.726 22.3333 118.741 23.2982C117.786 24.2669 116.641 25.0315 115.377 25.545C114.113 26.0585 112.757 26.3101 111.391 26.2843C110.026 26.3101 108.67 26.0585 107.406 25.545C106.142 25.0315 104.997 24.2669 104.041 23.2982C103.102 22.3174 102.367 21.1616 101.88 19.8973C101.392 18.6331 101.162 17.2855 101.202 15.9324C101.176 14.5764 101.429 13.2295 101.946 11.9743C102.463 10.7191 103.233 9.58203 104.208 8.63294C105.169 7.66588 106.313 6.89799 107.575 6.37386C108.837 5.84974 110.191 5.57984 111.558 5.57984C112.926 5.57984 114.28 5.84974 115.542 6.37386C116.804 6.89799 117.948 7.66588 118.908 8.63294C119.89 9.5792 120.666 10.715 121.189 11.9703Z" fill="white"/>
<path fill-rule="evenodd" clip-rule="evenodd" d="M54.523 29.2222C54.5518 28.8901 54.5084 28.5558 54.3955 28.2419L44.2726 2.06346C43.9562 1.41334 43.4478 0.874496 42.815 0.518806C42.1823 0.163116 41.4554 0.00749314 40.7313 0.0726991C39.9497 -0.0881807 39.1359 0.034166 38.4373 0.417591C37.7387 0.801016 37.2014 1.42018 36.9227 2.16299L26.9 28.2751C26.7852 28.5901 26.7437 28.9268 26.7784 29.2601C26.8131 29.5933 26.9232 29.9145 27.1004 30.1995C27.4328 30.8678 28.0048 31.3886 28.7041 31.6594C29.428 31.915 30.2185 31.915 30.9425 31.6594C31.2642 31.5661 31.5619 31.4052 31.8155 31.1877C32.0691 30.9702 32.2727 30.701 32.4125 30.3986L34.417 25.8862H46.7783L48.8831 30.3654C49.0228 30.6679 49.2264 30.937 49.48 31.1545C49.7337 31.3721 50.0314 31.5329 50.3531 31.6262C51.077 31.8818 51.8675 31.8818 52.5915 31.6262C53.2875 31.3371 53.8644 30.8225 54.2285 30.1663C54.3937 29.8762 54.4942 29.5542 54.523 29.2222ZM40.8983 8.83203L44.9074 20.2457H36.5218L40.5642 8.83203H40.8983Z" fill="white"/>
<path d="M11.4318 26.3172C8.82117 26.3749 6.26327 25.5825 4.14865 24.061C3.8917 23.8757 3.59348 23.7549 3.27938 23.7086C2.96527 23.6624 2.64457 23.6923 2.34457 23.7956C1.65181 23.9635 1.03133 24.3472 0.573893 24.8905C0.161747 25.4954 -0.0378918 26.2185 0.00594137 26.9476C0.0184544 27.3455 0.132262 27.7337 0.33674 28.076C0.541218 28.4183 0.829699 28.7036 1.17525 28.9052C4.22105 30.977 7.84086 32.0555 11.532 31.9909C14.5219 32.1024 17.4594 31.1885 19.8508 29.4029C20.9251 28.6038 21.7896 27.5594 22.3711 26.358C22.9527 25.1567 23.2342 23.8339 23.1917 22.5016C23.2585 21.2691 23.0539 20.0369 22.5924 18.8909C22.1308 17.7449 21.4232 16.7126 20.519 15.8658C18.4579 14.1034 15.8814 13.045 13.1691 12.8464C11.3381 12.7089 9.5485 12.2365 7.89045 11.4529C7.48636 11.1574 7.16416 10.7651 6.95386 10.3126C6.74356 9.86005 6.652 9.36204 6.68773 8.86492C6.73644 8.39629 6.89862 7.94633 7.16042 7.55345C7.42221 7.16057 7.77584 6.83644 8.19113 6.60873C9.18822 5.98215 10.3529 5.66985 11.532 5.71289C13.9044 5.76417 16.2165 6.46451 18.2138 7.73682C18.4994 7.87721 18.8138 7.95025 19.1325 7.95025C19.4513 7.95025 19.7657 7.87721 20.0513 7.73682C20.7197 7.48123 21.2758 6.99946 21.6215 6.37647C22.0046 5.77508 22.1476 5.05323 22.0224 4.35254C21.9641 4.03684 21.8424 3.73605 21.6644 3.46812C21.4865 3.20019 21.256 2.97062 20.9867 2.79311C18.1423 0.968739 14.8175 0.0220145 11.4318 0.0724094C8.63418 -0.0271739 5.89043 0.853716 3.68092 2.56086C2.68466 3.28251 1.8788 4.23263 1.332 5.33028C0.78519 6.42793 0.513642 7.64057 0.540484 8.86492C0.468868 10.02 0.646412 11.1769 1.06124 12.2584C1.47607 13.3398 2.11862 14.3208 2.94593 15.1358C5.16367 16.913 7.88539 17.957 10.7302 18.1219C11.8674 18.2432 12.9877 18.488 14.0711 18.8519C14.8144 19.0545 15.493 19.4429 16.0422 19.98C16.4315 20.2681 16.7605 20.6287 17.0111 21.0417C17.0686 21.4712 17.0686 21.9063 17.0111 22.3357C17.0331 22.9132 16.9029 23.4863 16.6334 23.9984C16.3638 24.5105 15.9643 24.9439 15.4743 25.2555C14.2659 26.0073 12.8564 26.3775 11.4318 26.3172Z" fill="white"/>
<path d="M58.5717 2.85939C58.5694 2.47836 58.663 2.10281 58.8438 1.76676C59.0247 1.43072 59.2871 1.14482 59.6074 0.934988C60.3327 0.373348 61.2267 0.0695892 62.1464 0.0723265C62.7543 0.00698417 63.3685 0.108554 63.9223 0.365972C64.476 0.623391 64.948 1.02679 65.2869 1.53221L74.2405 12.8132L83.2609 1.46586C83.6305 1.01846 84.1021 0.664792 84.6365 0.434032C85.1709 0.203271 85.7529 0.102037 86.3345 0.138685C87.2471 0.111739 88.1421 0.392406 88.8736 0.934988C89.1855 1.1507 89.4399 1.43869 89.6145 1.77401C89.7891 2.10933 89.8788 2.48188 89.8758 2.85939V29.4028C89.8838 29.7437 89.8091 30.0814 89.6579 30.3875C89.5067 30.6936 89.2835 30.959 89.0072 31.1613C88.4462 31.6534 87.7174 31.9144 86.9693 31.8913C86.2113 31.913 85.4725 31.6527 84.8979 31.1613C84.6275 30.9535 84.4086 30.687 84.2581 30.3822C84.1075 30.0774 84.0292 29.7423 84.0293 29.4028V9.66114L76.8464 19.0841C76.5656 19.501 76.1814 19.8391 75.7308 20.0658C75.2803 20.2924 74.7785 20.4 74.2739 20.378C73.7794 20.3949 73.2889 20.2846 72.8499 20.0579C72.4109 19.8312 72.0383 19.4958 71.7682 19.0841L64.5519 9.66114V29.3365C64.5519 29.676 64.4737 30.011 64.3231 30.3158C64.1725 30.6207 63.9536 30.8872 63.6832 31.095C63.0962 31.5497 62.3731 31.7966 61.6286 31.7966C60.8841 31.7966 60.161 31.5497 59.574 31.095C59.2977 30.8926 59.0745 30.6272 58.9233 30.3211C58.7721 30.015 58.6973 29.6773 58.7053 29.3365L58.5717 2.85939Z" fill="white"/>
</svg>
