<svg width="88" height="22" viewBox="0 0 88 22" fill="none" xmlns="http://www.w3.org/2000/svg">
<path fill-rule="evenodd" clip-rule="evenodd" d="M72.2669 21.1027C73.639 21.6431 75.1057 21.9073 76.5815 21.8799H76.6964C78.1689 21.9081 79.6323 21.6442 81.0009 21.1036C82.3694 20.5631 83.6156 19.7568 84.6665 18.732C85.7482 17.7464 86.605 16.5424 87.1795 15.2007C87.7539 13.8591 88.0326 12.411 87.997 10.9535C88.0293 9.49988 87.749 8.05612 87.1747 6.71867C86.6003 5.38123 85.7452 4.18089 84.6665 3.19786C82.5004 1.14522 79.6215 0 76.6275 0C73.6335 0 70.7546 1.14522 68.5885 3.19786C67.5262 4.19126 66.6851 5.39457 66.1194 6.73033C65.5537 8.06609 65.2759 9.50469 65.304 10.9535C65.2713 12.4064 65.5468 13.8498 66.1127 15.1899C66.6786 16.53 67.5221 17.7369 68.5885 18.732C69.6443 19.7565 70.8947 20.5623 72.2669 21.1027ZM83.3173 8.2296C83.6767 9.09266 83.8545 10.0197 83.8396 10.9535L83.7248 10.9307C83.741 11.8749 83.5641 12.8126 83.2048 13.6869C82.8456 14.5613 82.3114 15.3541 81.6346 16.0175C80.9776 16.6835 80.1905 17.2092 79.3216 17.5622C78.4526 17.9152 77.5202 18.0882 76.5815 18.0705C75.6429 18.0882 74.7105 17.9152 73.8415 17.5622C72.9726 17.2092 72.1855 16.6835 71.5284 16.0175C70.8825 15.3432 70.3774 14.5486 70.0423 13.6794C69.7072 12.8103 69.5488 11.8838 69.5761 10.9535C69.5583 10.0213 69.7324 9.0953 70.0879 8.23233C70.4434 7.36937 70.9727 6.58765 71.6433 5.93515C72.3036 5.27029 73.0903 4.74237 73.9577 4.38203C74.8252 4.0217 75.7561 3.83614 76.6964 3.83614C77.6367 3.83614 78.5676 4.0217 79.435 4.38203C80.3025 4.74237 81.0892 5.27029 81.7495 5.93515C82.4243 6.5857 82.9578 7.36655 83.3173 8.2296Z" fill="#0459AD"/>
<path fill-rule="evenodd" clip-rule="evenodd" d="M37.4846 20.0902C37.5044 19.862 37.4745 19.6321 37.3969 19.4163L30.4374 1.41863C30.2199 0.971672 29.8703 0.601216 29.4353 0.356679C29.0003 0.112142 28.5006 0.00515153 28.0028 0.0499806C27.4654 -0.0606242 26.906 0.0234891 26.4257 0.287094C25.9454 0.550699 25.576 0.976373 25.3843 1.48706L18.4937 19.4391C18.4149 19.6557 18.3863 19.8872 18.4101 20.1163C18.434 20.3454 18.5097 20.5662 18.6316 20.7621C18.86 21.2216 19.2533 21.5796 19.7341 21.7658C20.2318 21.9416 20.7752 21.9416 21.273 21.7658C21.4941 21.7017 21.6988 21.5911 21.8732 21.4415C22.0475 21.292 22.1875 21.107 22.2836 20.899L23.6617 17.7968H32.1601L33.6071 20.8762C33.7032 21.0842 33.8432 21.2692 34.0175 21.4187C34.1919 21.5683 34.3966 21.6789 34.6177 21.743C35.1154 21.9188 35.6589 21.9188 36.1566 21.743C36.6351 21.5443 37.0318 21.1905 37.2821 20.7393C37.3957 20.5399 37.4647 20.3185 37.4846 20.0902ZM28.1176 6.07202L30.8738 13.9189H25.1087L27.8879 6.07202H28.1176Z" fill="#0459AD"/>
<path d="M7.85936 18.0931C6.06456 18.1328 4.306 17.588 2.85219 16.542C2.67554 16.4146 2.47052 16.3315 2.25457 16.2997C2.03862 16.2679 1.81814 16.2884 1.61189 16.3595C1.13562 16.4749 0.709039 16.7387 0.394551 17.1122C0.111201 17.5281 -0.0260506 18.0252 0.00408469 18.5265C0.0126874 18.8 0.0909301 19.0669 0.231509 19.3022C0.372087 19.5376 0.570418 19.7337 0.807987 19.8723C2.90197 21.2967 5.39059 22.0381 7.92826 21.9937C9.98381 22.0704 12.0033 21.4421 13.6475 20.2145C14.386 19.6651 14.9803 18.9471 15.3802 18.1211C15.78 17.2952 15.9735 16.3858 15.9443 15.4699C15.9902 14.6225 15.8496 13.7754 15.5322 12.9875C15.2149 12.1996 14.7285 11.4899 14.1068 10.9077C12.6898 9.69609 10.9185 8.96844 9.05373 8.83192C7.79494 8.73737 6.56459 8.41256 5.42468 7.87387C5.14687 7.6707 4.92536 7.40099 4.78078 7.08989C4.6362 6.77879 4.57325 6.4364 4.59781 6.09463C4.63131 5.77245 4.7428 5.46311 4.92279 5.193C5.10277 4.92289 5.34589 4.70005 5.6314 4.5435C6.3169 4.11273 7.1176 3.89802 7.92826 3.92761C9.55925 3.96287 11.1488 4.44435 12.522 5.31907C12.7184 5.41558 12.9345 5.4658 13.1536 5.4658C13.3727 5.4658 13.5889 5.41558 13.7853 5.31907C14.2448 5.14334 14.6271 4.81213 14.8648 4.38383C15.1282 3.97037 15.2265 3.47409 15.1404 2.99237C15.1003 2.77533 15.0166 2.56853 14.8943 2.38433C14.772 2.20013 14.6135 2.0423 14.4284 1.92026C12.4728 0.666008 10.187 0.015135 7.85936 0.0497814C5.93599 -0.0186821 4.04967 0.58693 2.53063 1.76059C1.8457 2.25673 1.29168 2.90993 0.915747 3.66457C0.539818 4.4192 0.353129 5.2529 0.371583 6.09463C0.322347 6.88874 0.444408 7.68414 0.729603 8.42763C1.0148 9.17112 1.45655 9.84557 2.02532 10.4059C3.55003 11.6277 5.42121 12.3455 7.37702 12.4588C8.15881 12.5422 8.92904 12.7105 9.67388 12.9607C10.1849 13.0999 10.6515 13.367 11.029 13.7362C11.2966 13.9343 11.5229 14.1823 11.6951 14.4662C11.7346 14.7614 11.7346 15.0606 11.6951 15.3558C11.7103 15.7528 11.6208 16.1468 11.4354 16.4989C11.2501 16.851 10.9754 17.1489 10.6386 17.3631C9.80782 17.88 8.83877 18.1345 7.85936 18.0931Z" fill="#0459AD"/>
<path d="M40.268 1.96583C40.2665 1.70387 40.3308 1.44568 40.4551 1.21465C40.5795 0.983622 40.7599 0.787066 40.9801 0.642804C41.4787 0.256677 42.0934 0.0478426 42.7257 0.0497245C43.1436 0.00480162 43.5659 0.0746309 43.9466 0.251606C44.3273 0.428581 44.6518 0.705915 44.8847 1.0534L51.0403 8.80906L57.2418 1.00778C57.496 0.700194 57.8202 0.457045 58.1876 0.298397C58.555 0.139749 58.9551 0.0701505 59.355 0.095346C59.9824 0.0768204 60.5977 0.269779 61.1006 0.642804C61.3151 0.791108 61.4899 0.989099 61.61 1.21963C61.73 1.45017 61.7917 1.70629 61.7896 1.96583V20.2144C61.7951 20.4488 61.7437 20.681 61.6398 20.8914C61.5358 21.1018 61.3824 21.2843 61.1925 21.4234C60.8068 21.7617 60.3057 21.9412 59.7914 21.9252C59.2703 21.9402 58.7624 21.7612 58.3673 21.4234C58.1814 21.2806 58.0309 21.0973 57.9274 20.8878C57.8239 20.6782 57.7701 20.4479 57.7701 20.2144V6.64203L52.8319 13.1203C52.6389 13.407 52.3747 13.6394 52.0649 13.7952C51.7552 13.9511 51.4102 14.025 51.0633 14.0099C50.7233 14.0215 50.3861 13.9457 50.0843 13.7898C49.7825 13.634 49.5263 13.4033 49.3406 13.1203L44.3794 6.64203V20.1688C44.3794 20.4022 44.3256 20.6326 44.2221 20.8421C44.1186 21.0517 43.9681 21.2349 43.7822 21.3778C43.3786 21.6904 42.8815 21.8602 42.3697 21.8602C41.8578 21.8602 41.3607 21.6904 40.9571 21.3778C40.7671 21.2387 40.6137 21.0562 40.5098 20.8458C40.4058 20.6353 40.3544 20.4031 40.3599 20.1688L40.268 1.96583Z" fill="#0459AD"/>
</svg>
